<svg version="1.1" xmlns="http://www.w3.org/2000/svg" width="280" height="280">
<path d="M0 0 C0.94527054 -0.00807175 1.89054108 -0.01614349 2.86445618 -0.02445984 C4.86738273 -0.03826134 6.87033242 -0.049001 8.87329102 -0.05688477 C10.88508186 -0.068309 12.89684475 -0.08860546 14.90844727 -0.1184082 C52.81674351 -0.67869101 85.70844103 12.63611486 113.23828125 38.86328125 C140.11588409 66.42348987 149.94884362 101.29304305 149.51953125 138.8984375 C149.3488464 148.40826548 147.97457778 157.15251766 145.23828125 166.23828125 C145.0563623 166.88812988 144.87444336 167.53797852 144.68701172 168.20751953 C135.38392462 201.25467879 112.53561518 228.0156347 83.42578125 245.48828125 C70.12397999 252.79828014 56.08432184 257.30066045 41.23828125 260.23828125 C40.37388428 260.41335205 39.5094873 260.58842285 38.61889648 260.76879883 C34.22662096 261.37877542 29.90636191 261.4399497 25.4765625 261.4765625 C24.53129196 261.48463425 23.58602142 261.49270599 22.61210632 261.50102234 C20.60917977 261.51482384 18.60623008 261.5255635 16.60327148 261.53344727 C14.59148064 261.5448715 12.57971775 261.56516796 10.56811523 261.5949707 C-27.34018101 262.15525351 -60.23187853 248.84044764 -87.76171875 222.61328125 C-114.63932159 195.05307263 -124.47228112 160.18351945 -124.04296875 122.578125 C-123.8722839 113.06829702 -122.49801528 104.32404484 -119.76171875 95.23828125 C-119.5797998 94.58843262 -119.39788086 93.93858398 -119.21044922 93.26904297 C-109.90736212 60.22188371 -87.05905268 33.4609278 -57.94921875 15.98828125 C-44.64741749 8.67828236 -30.60775934 4.17590205 -15.76171875 1.23828125 C-14.46512329 0.97567505 -14.46512329 0.97567505 -13.14233398 0.70776367 C-8.75005846 0.09778708 -4.42979941 0.0366128 0 0 Z " fill="#268D63" transform="translate(126.76171875,14.76171875)"/>
<path d="M0 0 C2.04098609 -0.08176057 4.08294023 -0.13953215 6.125 -0.1875 C7.83042969 -0.23970703 7.83042969 -0.23970703 9.5703125 -0.29296875 C13 0 13 0 15.63085938 1.48632812 C19.9829115 3.44159792 23.62061928 3.47601838 28.3359375 3.51171875 C29.21528961 3.52966995 30.09464172 3.54762115 31.00064087 3.56611633 C33.79204605 3.62002812 36.58328211 3.65405329 39.375 3.6875 C41.27476302 3.72069 43.17450377 3.75518121 45.07421875 3.79101562 C49.71602344 3.87574349 54.35777965 3.94264561 59 4 C59 3.34 59 2.68 59 2 C66.03726325 -0.44774374 73.26448338 -1.50538067 80.3125 1.5 C86.00228361 4.75130492 88.22791477 10.36684125 90.9375 16.0625 C92.98872256 20.30669628 95.83717389 23.54316471 99 27 C101.28378212 29.61003671 102.00485992 31.0178197 102.9375 34.4375 C104.85402019 40.86347947 108.89748408 43.78616616 114.09765625 47.6015625 C117.73426377 50.27487973 119.64755408 51.85455077 121 56.25 C121 61.15183116 120.02381058 64.13835777 117 68 C95.48896186 86.9250117 67.5850884 86.90375126 40.69580078 86.52856445 C37.41197361 86.49021271 34.12837027 86.48224567 30.84434891 86.4751358 C26.88050797 86.46478698 22.91686044 86.435831 18.953125 86.40625 C17.84721889 86.40060783 17.84721889 86.40060783 16.71897125 86.39485168 C5.97317016 86.32383912 -3.72653399 85.12670705 -14 82 C-14 81.34 -14 80.68 -14 80 C-15.0725 79.979375 -16.145 79.95875 -17.25 79.9375 C-26.81925705 78.76053256 -34.96964883 72.00319456 -40.8125 64.75 C-42.55892215 60.70565398 -43.13280531 57.30896199 -42 53 C-39.10904432 48.97081781 -35.63461988 45.91234598 -31.3125 43.5 C-26.75775535 40.54557104 -24.56286773 35.43275422 -22.625 30.5 C-21.15638465 27.33682848 -20.08363528 25.88003826 -17.75 23.4375 C-13.5266835 18.89206614 -11.15452768 13.64237874 -8.578125 8.07421875 C-6.27793576 3.59340456 -6.27793576 3.59340456 -4 2 C-2.68 2 -1.36 2 0 2 C0 1.34 0 0.68 0 0 Z " fill="#A5B1A9" transform="translate(101,102)"/>
<path d="M0 0 C2.04098609 -0.08176057 4.08294023 -0.13953215 6.125 -0.1875 C7.83042969 -0.23970703 7.83042969 -0.23970703 9.5703125 -0.29296875 C13 0 13 0 15.63085938 1.48632812 C19.9829115 3.44159792 23.62061928 3.47601838 28.3359375 3.51171875 C29.21528961 3.52966995 30.09464172 3.54762115 31.00064087 3.56611633 C33.79204605 3.62002812 36.58328211 3.65405329 39.375 3.6875 C41.27476302 3.72069 43.17450377 3.75518121 45.07421875 3.79101562 C49.71602344 3.87574349 54.35777965 3.94264561 59 4 C59 3.34 59 2.68 59 2 C66.03726325 -0.44774374 73.26448338 -1.50538067 80.3125 1.5 C86.00228361 4.75130492 88.22791477 10.36684125 90.9375 16.0625 C92.98872256 20.30669628 95.83717389 23.54316471 99 27 C101.28378212 29.61003671 102.00485992 31.0178197 102.9375 34.4375 C104.85402019 40.86347947 108.89748408 43.78616616 114.09765625 47.6015625 C117.73426377 50.27487973 119.64755408 51.85455077 121 56.25 C121 61.15183116 120.02381058 64.13835777 117 68 C95.48896186 86.9250117 67.5850884 86.90375126 40.69580078 86.52856445 C37.41197361 86.49021271 34.12837027 86.48224567 30.84434891 86.4751358 C26.88050797 86.46478698 22.91686044 86.435831 18.953125 86.40625 C17.84721889 86.40060783 17.84721889 86.40060783 16.71897125 86.39485168 C5.97317016 86.32383912 -3.72653399 85.12670705 -14 82 C-14 81.34 -14 80.68 -14 80 C-15.0725 79.979375 -16.145 79.95875 -17.25 79.9375 C-26.81925705 78.76053256 -34.96964883 72.00319456 -40.8125 64.75 C-42.55892215 60.70565398 -43.13280531 57.30896199 -42 53 C-39.10904432 48.97081781 -35.63461988 45.91234598 -31.3125 43.5 C-26.75775535 40.54557104 -24.56286773 35.43275422 -22.625 30.5 C-21.15638465 27.33682848 -20.08363528 25.88003826 -17.75 23.4375 C-13.5266835 18.89206614 -11.15452768 13.64237874 -8.578125 8.07421875 C-6.27793576 3.59340456 -6.27793576 3.59340456 -4 2 C-2.68 2 -1.36 2 0 2 C0 1.34 0 0.68 0 0 Z M-1 11 C-2.40466953 13.05093145 -2.40466953 13.05093145 -3 15 C0.81813447 14.72459296 0.81813447 14.72459296 4 13 C5.68608966 12.92794489 7.37500659 12.91613932 9.0625 12.9375 C9.98160156 12.94652344 10.90070313 12.95554687 11.84765625 12.96484375 C12.55792969 12.97644531 13.26820312 12.98804687 14 13 C13.31035156 13.15855469 12.62070313 13.31710938 11.91015625 13.48046875 C4.28924129 15.37263008 -3.72867934 17.80619823 -9 24 C-9 24.66 -9 25.32 -9 26 C-9.66 26 -10.32 26 -11 26 C-14.56721405 30.399564 -16.22506075 35.05876984 -17.97265625 40.4140625 C-19.84686026 45.13164065 -22.05354905 47.31173865 -26.5625 49.5625 C-29.84901194 51.20845426 -30.89062909 51.83594363 -33 55 C-33.20434102 59.0868203 -33.08970652 61.50999313 -30.66015625 64.83203125 C-22.94280606 71.82341394 -11.75431715 74.09064083 -2 77 C-0.83726563 77.37511719 0.32546875 77.75023437 1.5234375 78.13671875 C9.58631578 80.1388492 17.85842704 80.15011775 26.125 80.1328125 C27.66631592 80.13424759 27.66631592 80.13424759 29.23876953 80.13571167 C31.39681052 80.1363878 33.55485362 80.13457338 35.71289062 80.13037109 C38.99093248 80.12501482 42.26883734 80.13033551 45.546875 80.13671875 C47.6562503 80.13605787 49.76562551 80.1347765 51.875 80.1328125 C53.32543701 80.13584885 53.32543701 80.13584885 54.80517578 80.13894653 C63.86052636 80.1081868 71.6908628 79.84682278 80 76 C81.89729795 75.51763612 83.7951173 75.03679723 85.69921875 74.58203125 C93.91762007 72.50301292 101.92882201 70.24974205 108 64 C108 63.34 108 62.68 108 62 C108.99 61.67 109.98 61.34 111 61 C111.4057887 56.64047765 111.4057887 56.64047765 109.4375 52.875 C106.9272606 50.83854572 106.9272606 50.83854572 103.5 49.125 C97.91808761 46.0186479 96.08986609 41.41699897 94.125 35.5625 C92.32330787 30.32833513 89.92145714 26.84825661 86 23 C85.55084229 22.50773926 85.10168457 22.01547852 84.63891602 21.50830078 C82.88627318 19.89533676 81.53943451 19.23316818 79.3125 18.4296875 C78.61382812 18.17316406 77.91515625 17.91664062 77.1953125 17.65234375 C76.10863281 17.26755859 76.10863281 17.26755859 75 16.875 C73.91332031 16.47861328 73.91332031 16.47861328 72.8046875 16.07421875 C67.18139995 14.0303301 62.60972567 12.8292187 56.625 12.5 C49.50316468 12.10668365 49.50316468 12.10668365 46.53125 11.4765625 C42.98390878 10.80869888 39.47025329 10.85262705 35.875 10.875 C34.75363647 10.87790039 34.75363647 10.87790039 33.60961914 10.88085938 C27.70297098 10.92660302 21.86647566 11.29044787 16 12 C16 11.01 16 10.02 16 9 C9.77867823 6.92622608 4.4607478 7.35950147 -1 11 Z " fill="#31916B" transform="translate(101,102)"/>
<path d="M0 0 C3.05926156 1.52963078 5.14763277 2.79955837 7.75 4.875 C11.63151971 7.85180459 15.56867667 9.94259988 20 12 C20 12.66 20 13.32 20 14 C23.27773504 13.24849977 23.27773504 13.24849977 25 10 C26.91796875 9.26171875 26.91796875 9.26171875 29.1875 8.6875 C33.59264483 7.36808464 36.25298928 5.42275702 39.4921875 2.20703125 C41 1 41 1 44 1 C43.42647107 4.87132028 41.51295648 7.08172796 39 10 C40.7325 9.814375 40.7325 9.814375 42.5 9.625 C47.25291997 9.59953793 49.87503705 11.54690386 53.53125 14.39453125 C55 16 55 16 55 19 C53.35 18.67 51.7 18.34 50 18 C50 17.34 50 16.68 50 16 C46.7 16.33 43.4 16.66 40 17 C40 17.99 40 18.98 40 20 C40.66 20 41.32 20 42 20 C42 20.66 42 21.32 42 22 C42.64066406 22.07476562 43.28132813 22.14953125 43.94140625 22.2265625 C50.47028638 23.21903012 54.57842401 25.02403681 59 30 C60.47896861 32.95793723 60.4355582 34.70220224 60 38 C56.84677279 44.46629543 50.46644785 47.22335245 44.07910156 49.74316406 C37.76100149 51.91588528 31.31598969 51.81959046 24.7043457 51.67236328 C22.43491865 51.62494607 20.17019275 51.63131908 17.90039062 51.64453125 C8.30382879 51.60738756 -3.91343462 51.49719504 -11.1875 44.375 C-11.785625 43.59125 -12.38375 42.8075 -13 42 C-13.66 41.34 -14.32 40.68 -15 40 C-15.62331172 35.87966668 -15.40861804 32.081636 -13.9375 28.1875 C-10.12131721 23.87890653 -6.68465353 22.10696213 -1.0625 21.75 C-0.051875 21.8325 0.95875 21.915 2 22 C2 21.34 2 20.68 2 20 C2.99 20 3.98 20 5 20 C4.67 19.34 4.34 18.68 4 18 C1.75203227 17.41605669 1.75203227 17.41605669 -0.875 17.1875 C-1.75929688 17.07792969 -2.64359375 16.96835938 -3.5546875 16.85546875 C-6.55737775 17.03294405 -7.04785976 17.84149065 -9 20 C-9.99 20 -10.98 20 -12 20 C-11.75 17.625 -11.75 17.625 -11 15 C-9.68352881 14.30062468 -8.34977849 13.63270867 -7 13 C-6.19471111 10.94999129 -6.19471111 10.94999129 -6 9 C-4.02 9 -2.04 9 0 9 C0 6.03 0 3.06 0 0 Z " fill="#7DAD9A" transform="translate(118,128)"/>
<path d="M0 0 C2.04098609 -0.08176057 4.08294023 -0.13953215 6.125 -0.1875 C7.83042969 -0.23970703 7.83042969 -0.23970703 9.5703125 -0.29296875 C13 0 13 0 15.63085938 1.48632812 C19.9829115 3.44159792 23.62061928 3.47601838 28.3359375 3.51171875 C29.21528961 3.52966995 30.09464172 3.54762115 31.00064087 3.56611633 C33.79204605 3.62002812 36.58328211 3.65405329 39.375 3.6875 C41.27476302 3.72069 43.17450377 3.75518121 45.07421875 3.79101562 C49.71602344 3.87574349 54.35777965 3.94264561 59 4 C59 3.34 59 2.68 59 2 C66.03726325 -0.44774374 73.26448338 -1.50538067 80.3125 1.5 C86.00228361 4.75130492 88.22791477 10.36684125 90.9375 16.0625 C92.98872256 20.30669628 95.83717389 23.54316471 99 27 C101.28378212 29.61003671 102.00485992 31.0178197 102.9375 34.4375 C104.85402019 40.86347947 108.89748408 43.78616616 114.09765625 47.6015625 C117.73426377 50.27487973 119.64755408 51.85455077 121 56.25 C121 61.15183116 120.02381058 64.13835777 117 68 C95.48896186 86.9250117 67.5850884 86.90375126 40.69580078 86.52856445 C37.41197361 86.49021271 34.12837027 86.48224567 30.84434891 86.4751358 C26.88050797 86.46478698 22.91686044 86.435831 18.953125 86.40625 C17.84721889 86.40060783 17.84721889 86.40060783 16.71897125 86.39485168 C5.97317016 86.32383912 -3.72653399 85.12670705 -14 82 C-14 81.34 -14 80.68 -14 80 C-15.0725 79.979375 -16.145 79.95875 -17.25 79.9375 C-26.81925705 78.76053256 -34.96964883 72.00319456 -40.8125 64.75 C-42.55892215 60.70565398 -43.13280531 57.30896199 -42 53 C-39.10904432 48.97081781 -35.63461988 45.91234598 -31.3125 43.5 C-26.75775535 40.54557104 -24.56286773 35.43275422 -22.625 30.5 C-21.15638465 27.33682848 -20.08363528 25.88003826 -17.75 23.4375 C-13.5266835 18.89206614 -11.15452768 13.64237874 -8.578125 8.07421875 C-6.27793576 3.59340456 -6.27793576 3.59340456 -4 2 C-2.68 2 -1.36 2 0 2 C0 1.34 0 0.68 0 0 Z M-5 9 C-6.67393523 11.7196281 -8.14700819 14.48139805 -9.578125 17.3359375 C-10.84128467 19.70262677 -12.11550387 21.55588362 -13.875 23.5625 C-16.21904507 25.71230202 -16.21904507 25.71230202 -16 28 C-16.66 28 -17.32 28 -18 28 C-18.23074219 28.73605469 -18.46148437 29.47210938 -18.69921875 30.23046875 C-20.63867497 36.03350575 -22.17007369 40.02872726 -27 44 C-28.59007773 45.36719504 -30.17290216 46.74285245 -31.75 48.125 C-32.52859375 48.78757813 -33.3071875 49.45015625 -34.109375 50.1328125 C-36.66692647 52.65865879 -36.95407835 54.66542794 -37.4375 58.1875 C-36.71230371 64.50706771 -33.06388512 68.31136672 -28.25 72.25 C-21.47288684 75.89921478 -14.83424044 78.29355772 -7.2265625 79.5078125 C-5 80 -5 80 -3.2109375 80.9921875 C4.19883399 84.36978652 13.80427682 83.16374211 21.75390625 83.16796875 C23.18301933 83.17118809 24.61213209 83.17455265 26.04124451 83.17805481 C29.02416752 83.18401468 32.00706169 83.18589779 34.98999023 83.18530273 C38.79831497 83.18520091 42.60645413 83.19888778 46.41473484 83.21607494 C49.36167745 83.22722722 52.30857549 83.22922101 55.25553703 83.22869301 C56.6592568 83.22986692 58.06297796 83.23425535 59.46667671 83.24202538 C61.43291922 83.25189699 63.39921695 83.2476646 65.36547852 83.24291992 C66.48052261 83.24434494 67.59556671 83.24576996 68.74440002 83.24723816 C72.3837554 82.97085668 75.52508282 82.09449779 79 81 C81.43697907 80.37297187 83.87449259 79.74801773 86.3125 79.125 C96.8626101 76.33159639 106.84410906 73.28374208 114 64.5625 C115.3317677 61.14984528 115.38960048 58.63627116 115 55 C113.00912889 50.93503809 110.71567567 48.79691119 107.0625 46.1875 C102.39752471 42.58028073 100.01537212 39.48938374 98 34 C95.83944921 28.16651287 92.90272753 24.16593563 88.83984375 19.4296875 C86.99954933 16.99940485 86.07711391 14.8285948 85 12 C81.48525369 8.01028797 78.12725447 4.330817 72.63671875 3.75 C67.64381603 3.55260214 67.64381603 3.55260214 62.95336914 5.00219727 C58.71180687 6.43521909 54.69380172 6.2855829 50.24609375 6.265625 C48.839291 6.26849518 48.839291 6.26849518 47.40406799 6.27142334 C45.42635835 6.27278131 43.44863967 6.26911201 41.47094727 6.26074219 C38.44462081 6.25002522 35.41888633 6.26065686 32.39257812 6.2734375 C30.46874869 6.27211607 28.54491963 6.26955402 26.62109375 6.265625 C25.71685165 6.26967346 24.81260956 6.27372192 23.88096619 6.27789307 C23.03651443 6.27158875 22.19206268 6.26528442 21.32202148 6.25878906 C20.21213112 6.25640228 20.21213112 6.25640228 19.07981873 6.25396729 C16.69473318 5.96272378 15.10723555 5.12318274 13 4 C5.89517774 2.96637348 -0.16372545 3.32316388 -5 9 Z " fill="#82B29F" transform="translate(101,102)"/>
<path d="M0 0 C3.05926156 1.52963078 5.14763277 2.79955837 7.75 4.875 C11.63151971 7.85180459 15.56867667 9.94259988 20 12 C20 12.66 20 13.32 20 14 C23.27773504 13.24849977 23.27773504 13.24849977 25 10 C26.91796875 9.26171875 26.91796875 9.26171875 29.1875 8.6875 C33.59264483 7.36808464 36.25298928 5.42275702 39.4921875 2.20703125 C41 1 41 1 44 1 C43.42647107 4.87132028 41.51295648 7.08172796 39 10 C40.7325 9.814375 40.7325 9.814375 42.5 9.625 C47.25291997 9.59953793 49.87503705 11.54690386 53.53125 14.39453125 C55 16 55 16 55 19 C53.35 18.67 51.7 18.34 50 18 C50 17.34 50 16.68 50 16 C46.7 16.33 43.4 16.66 40 17 C40 17.99 40 18.98 40 20 C40.66 20 41.32 20 42 20 C42 20.66 42 21.32 42 22 C42.64066406 22.07476562 43.28132813 22.14953125 43.94140625 22.2265625 C50.47028638 23.21903012 54.57842401 25.02403681 59 30 C60.47896861 32.95793723 60.4355582 34.70220224 60 38 C56.84677279 44.46629543 50.46644785 47.22335245 44.07910156 49.74316406 C37.76100149 51.91588528 31.31598969 51.81959046 24.7043457 51.67236328 C22.43491865 51.62494607 20.17019275 51.63131908 17.90039062 51.64453125 C8.30382879 51.60738756 -3.91343462 51.49719504 -11.1875 44.375 C-11.785625 43.59125 -12.38375 42.8075 -13 42 C-13.66 41.34 -14.32 40.68 -15 40 C-15.62331172 35.87966668 -15.40861804 32.081636 -13.9375 28.1875 C-10.12131721 23.87890653 -6.68465353 22.10696213 -1.0625 21.75 C-0.051875 21.8325 0.95875 21.915 2 22 C2 21.34 2 20.68 2 20 C2.99 20 3.98 20 5 20 C4.67 19.34 4.34 18.68 4 18 C1.75203227 17.41605669 1.75203227 17.41605669 -0.875 17.1875 C-1.75929688 17.07792969 -2.64359375 16.96835938 -3.5546875 16.85546875 C-6.55737775 17.03294405 -7.04785976 17.84149065 -9 20 C-9.99 20 -10.98 20 -12 20 C-11.75 17.625 -11.75 17.625 -11 15 C-9.68352881 14.30062468 -8.34977849 13.63270867 -7 13 C-6.19471111 10.94999129 -6.19471111 10.94999129 -6 9 C-4.02 9 -2.04 9 0 9 C0 6.03 0 3.06 0 0 Z M9.12109375 21.4375 C6.56504317 23.32041019 4.31927836 23.92018041 1.25 24.6875 C-0.22726563 25.06455078 -0.22726563 25.06455078 -1.734375 25.44921875 C-2.48203125 25.63097656 -3.2296875 25.81273437 -4 26 C-4 26.66 -4 27.32 -4 28 C-5.1446875 28.1546875 -5.1446875 28.1546875 -6.3125 28.3125 C-9.23942162 29.06124739 -10.31505916 29.51692929 -12 32 C-12.60360329 35.27670358 -12.23185362 36.63114197 -10.453125 39.4609375 C-7.36254071 42.65979066 -4.44102836 43.78871308 -0.3125 45.25 C6.9346211 47.9346211 6.9346211 47.9346211 8 49 C12.09589441 49.31386993 16.20609421 49.27878567 20.3125 49.3125 C22.0150293 49.35600586 22.0150293 49.35600586 23.75195312 49.40039062 C31.87115974 49.46060151 38.47560455 48.03255159 46 45 C46 44.34 46 43.68 46 43 C47.11375 42.87625 47.11375 42.87625 48.25 42.75 C51.6427671 41.82469988 52.93127504 40.83491939 55 38 C55.75 35 55.75 35 55 32 C51.24494761 27.88155545 46.05003898 26.10200241 41 24 C39.824375 23.46375 38.64875 22.9275 37.4375 22.375 C29.57525569 19.23010228 16.49677744 15.79456529 9.12109375 21.4375 Z " fill="#39926F" transform="translate(118,128)"/>
<path d="M0 0 C1.16208984 0.73669922 1.16208984 0.73669922 2.34765625 1.48828125 C5.7815152 3.44542913 8.95605512 3.55833677 12.8125 3.6875 C13.85180664 3.73874023 13.85180664 3.73874023 14.91210938 3.79101562 C16.60752849 3.87286344 18.30373458 3.93812365 20 4 C20 4.99 20 5.98 20 7 C14.33357449 8.22517308 8.76291482 8.09228867 3 8 C3 7.01 3 6.02 3 5 C-5.94896892 4.47622347 -5.94896892 4.47622347 -14 8 C-14.66 8.99 -15.32 9.98 -16 11 C-15.071875 10.505 -14.14375 10.01 -13.1875 9.5 C-8.26031562 7.340555 -3.27718611 7.74234354 2 8 C1.67 8.66 1.34 9.32 1 10 C-1.1875 10.67578125 -1.1875 10.67578125 -4 11.3125 C-11.50134205 13.24643975 -17.32538045 15.74504031 -22 22 C-22.66 22 -23.32 22 -24 22 C-25.05887349 24.64232652 -26.11192986 27.28629679 -27.1484375 29.9375 C-27.55320312 30.948125 -27.95796875 31.95875 -28.375 33 C-28.77460937 34.010625 -29.17421875 35.02125 -29.5859375 36.0625 C-32.02889934 41.13738206 -34.52712169 44.10613945 -39.6875 46.375 C-43.57048312 48.37405644 -43.57048312 48.37405644 -45.1875 52.5625 C-45.04752047 56.67525624 -45.04752047 56.67525624 -43 60 C-37.51791685 64.45419256 -32.20769244 66.60498445 -25.5 68.6875 C-24.58863281 68.98205078 -23.67726563 69.27660156 -22.73828125 69.58007812 C-20.16456042 70.40641706 -17.58354195 71.20502349 -15 72 C-13.8346875 72.37769531 -12.669375 72.75539063 -11.46875 73.14453125 C-3.60535199 75.08381522 4.53736908 75.16843981 12.6015625 75.31640625 C14.04527725 75.3475779 14.04527725 75.3475779 15.51815796 75.37937927 C18.55370851 75.44408793 21.58933583 75.50338875 24.625 75.5625 C26.69922628 75.6057603 28.77344516 75.64937681 30.84765625 75.69335938 C35.89836142 75.79968703 40.9491428 75.90116921 46 76 C46 76.66 46 77.32 46 78 C35.54419288 78.84600525 25.1525772 79.18636881 14.66455078 79.18530273 C12.23843354 79.18751053 9.81275752 79.2058199 7.38671875 79.22460938 C-2.89310081 79.26247798 -12.35125416 78.89794648 -22 75 C-23.216875 74.71125 -24.43375 74.4225 -25.6875 74.125 C-35.21710264 71.7875503 -42.75310127 68.3428726 -48.9375 60.5625 C-50.35371167 57.14693067 -50.39292373 54.66728818 -50 51 C-48.01819512 46.95381504 -45.78281091 44.87519123 -42.125 42.3125 C-35.84183214 37.47858838 -32.70978921 31.6852381 -31 24 C-30.34 24 -29.68 24 -29 24 C-28.7525 23.2575 -28.505 22.515 -28.25 21.75 C-27 19 -27 19 -25.1875 17.3125 C-22.92964469 14.92562438 -22.02361812 13.03360477 -20.6875 10.0625 C-16.25236305 0.99123803 -10.04805457 -1.77841674 0 0 Z " fill="#2F906A" transform="translate(114,106)"/>
<path d="M0 0 C3.05926156 1.52963078 5.14763277 2.79955837 7.75 4.875 C11.63151971 7.85180459 15.56867667 9.94259988 20 12 C20 12.66 20 13.32 20 14 C23.27773504 13.24849977 23.27773504 13.24849977 25 10 C26.91796875 9.26171875 26.91796875 9.26171875 29.1875 8.6875 C33.59264483 7.36808464 36.25298928 5.42275702 39.4921875 2.20703125 C41 1 41 1 44 1 C43.42647107 4.87132028 41.51295648 7.08172796 39 10 C40.7325 9.814375 40.7325 9.814375 42.5 9.625 C47.25291997 9.59953793 49.87503705 11.54690386 53.53125 14.39453125 C55 16 55 16 55 19 C53.35 18.67 51.7 18.34 50 18 C50 17.34 50 16.68 50 16 C46.7 16.33 43.4 16.66 40 17 C40 17.99 40 18.98 40 20 C40.66 20.33 41.32 20.66 42 21 C38.48523875 21.41350132 37.28176954 21.21622194 34.4140625 19.015625 C29.94331274 16.37614345 26.58757199 16.40505309 21.5 16.5 C20.67113281 16.48453125 19.84226563 16.4690625 18.98828125 16.453125 C13.30062215 16.48929453 10.49206878 17.56569665 6 21 C3.625 20.75 3.625 20.75 2 20 C2.99 20 3.98 20 5 20 C4.67 19.34 4.34 18.68 4 18 C1.75203227 17.41605669 1.75203227 17.41605669 -0.875 17.1875 C-1.75929688 17.07792969 -2.64359375 16.96835938 -3.5546875 16.85546875 C-6.55737775 17.03294405 -7.04785976 17.84149065 -9 20 C-9.99 20 -10.98 20 -12 20 C-11.75 17.625 -11.75 17.625 -11 15 C-9.68352881 14.30062468 -8.34977849 13.63270867 -7 13 C-6.19471111 10.94999129 -6.19471111 10.94999129 -6 9 C-4.02 9 -2.04 9 0 9 C0 6.03 0 3.06 0 0 Z " fill="#8DB3A2" transform="translate(118,128)"/>
<path d="M0 0 C2.92297309 2.51772314 4.21074193 5.27290535 5.8125 8.75 C8.31371793 13.90176231 11.06111045 17.88578895 15 22 C17.28378212 24.61003671 18.00485992 26.0178197 18.9375 29.4375 C20.85402019 35.86347947 24.89748408 38.78616616 30.09765625 42.6015625 C33.73426377 45.27487973 35.64755408 46.85455077 37 51.25 C37 56.15183116 36.02381058 59.13835777 33 63 C12.73751724 80.82655587 -13.4956184 82.00981815 -39 81 C-39 80.67 -39 80.34 -39 80 C-40.16571533 79.98018066 -41.33143066 79.96036133 -42.5324707 79.93994141 C-46.85446905 79.86391041 -51.17612962 79.77518924 -55.49780273 79.68261719 C-57.36882868 79.64431706 -59.23992853 79.609466 -61.11108398 79.578125 C-63.79958519 79.53249676 -66.48757723 79.47449912 -69.17578125 79.4140625 C-70.01337479 79.40251129 -70.85096832 79.39096008 -71.71394348 79.37905884 C-75.62373037 79.27953543 -77.6770953 79.2152698 -81 77 C-80.15110703 77.00444122 -79.30221405 77.00888245 -78.42759705 77.01345825 C-70.40949145 77.05360927 -62.39141985 77.08402212 -54.37323666 77.10362434 C-50.25146619 77.11404097 -46.12977912 77.12816123 -42.00805664 77.15087891 C-38.0269292 77.17268319 -34.04588174 77.18458457 -30.06469917 77.18975449 C-28.54932967 77.19343666 -27.03396432 77.20062694 -25.51862907 77.21146011 C-23.38854544 77.22607614 -21.25878819 77.22797377 -19.12866211 77.22705078 C-17.31331215 77.23371262 -17.31331215 77.23371262 -15.46128845 77.24050903 C-11.72803611 76.98110248 -8.55852797 76.1324613 -5 75 C-2.56302093 74.37297187 -0.12550741 73.74801773 2.3125 73.125 C17.71235995 69.27796979 17.71235995 69.27796979 29.19921875 59.02734375 C30.43286723 55.90410687 30.29129841 53.3208019 30 50 C28.01701982 45.93169227 25.71422782 43.79587701 22.0625 41.1875 C17.39752471 37.58028073 15.01537212 34.48938374 13 29 C10.82615445 23.13061701 7.87061019 19.16300729 3.7421875 14.4296875 C1.90406046 11.86620091 1.36422006 10.10138897 1 7 C0.01 6.67 -0.98 6.34 -2 6 C-1.67 5.34 -1.34 4.68 -1 4 C-0.505 4.495 -0.505 4.495 0 5 C0 3.35 0 1.7 0 0 Z " fill="#7CB09C" transform="translate(185,107)"/>
<path d="M0 0 C0.81662109 -0.020625 1.63324219 -0.04125 2.47460938 -0.0625 C8.22519319 -0.09915711 12.43015026 0.89755876 17.6875 3.25 C18.6875 4.25 18.6875 4.25 19.125 7.0625 C18.6875 10.25 18.6875 10.25 16.44140625 12.4140625 C11.51845878 15.44698226 5.77743529 14.86743 0.1875 14.8125 C-0.92753906 14.83634766 -2.04257813 14.86019531 -3.19140625 14.88476562 C-12.29766464 14.86848507 -12.29766464 14.86848507 -16.0546875 11.87890625 C-18.3125 9.25 -18.3125 9.25 -18.9375 6.625 C-18.3125 4.25 -18.3125 4.25 -16.625 2.5 C-11.45530107 -0.29443186 -5.73340853 0.03569437 0 0 Z " fill="#2B8F66" transform="translate(139.3125,159.75)"/>
<path d="M0 0 C2.61005943 0.8687328 5.23028683 1.55733842 7.890625 2.25390625 C10 3 10 3 11 5 C10.01 5 9.02 5 8 5 C7.814375 5.9590625 7.814375 5.9590625 7.625 6.9375 C7.41875 7.618125 7.2125 8.29875 7 9 C6.34 9.33 5.68 9.66 5 10 C4.67 10.99 4.34 11.98 4 13 C3.24783203 12.69255859 3.24783203 12.69255859 2.48046875 12.37890625 C-6.4362365 9.20413385 -15.63859231 9.27872774 -25 9 C-25 8.67 -25 8.34 -25 8 C-23.35 7.67 -21.7 7.34 -20 7 C-22.95377498 4.63019987 -22.95377498 4.63019987 -27 5 C-27 4.34 -27 3.68 -27 3 C-31.62 3.33 -36.24 3.66 -41 4 C-37.75821647 1.83881098 -34.84400869 0.91216266 -31.15625 -0.21875 C-28.75305559 -0.99267788 -28.75305559 -0.99267788 -26 -3 C-17.19809756 -4.79298013 -7.68882203 -4.89961853 0 0 Z " fill="#9BB1A5" transform="translate(155,151)"/>
<path d="M0 0 C1.49609375 1.35546875 1.49609375 1.35546875 2.49609375 5.10546875 C2.49609375 6.17796875 2.49609375 7.25046875 2.49609375 8.35546875 C1.89023438 7.92234375 1.284375 7.48921875 0.66015625 7.04296875 C-5.43862735 2.98962334 -10.16187401 1.07215555 -17.50390625 2.35546875 C-18.17566895 2.68836914 -18.84743164 3.02126953 -19.53955078 3.36425781 C-23.78697931 4.78449829 -27.80803425 4.64106094 -32.2578125 4.62109375 C-33.66461525 4.62396393 -33.66461525 4.62396393 -35.09983826 4.62689209 C-37.0775479 4.62825006 -39.05526658 4.62458076 -41.03295898 4.61621094 C-44.05928544 4.60549397 -47.08501992 4.61612561 -50.11132812 4.62890625 C-52.03515756 4.62758482 -53.95898662 4.62502277 -55.8828125 4.62109375 C-56.7870546 4.62514221 -57.69129669 4.62919067 -58.62294006 4.63336182 C-59.46739182 4.6270575 -60.31184357 4.62075317 -61.18188477 4.61425781 C-61.92181168 4.61266663 -62.66173859 4.61107544 -63.42408752 4.60943604 C-65.81053662 4.31802602 -67.38602129 3.46230815 -69.50390625 2.35546875 C-71.74523883 2.06853487 -73.99833815 1.86580284 -76.25390625 1.73046875 C-77.424375 1.65570313 -78.59484375 1.5809375 -79.80078125 1.50390625 C-80.6928125 1.45492187 -81.58484375 1.4059375 -82.50390625 1.35546875 C-81.84390625 0.36546875 -81.18390625 -0.62453125 -80.50390625 -1.64453125 C-77.3515625 -2.0078125 -77.3515625 -2.0078125 -73.56640625 -1.95703125 C-72.31988281 -1.95316406 -71.07335937 -1.94929688 -69.7890625 -1.9453125 C-66.50390625 -1.64453125 -66.50390625 -1.64453125 -63.50390625 0.35546875 C-61.58942573 0.68007032 -61.58942573 0.68007032 -59.49145508 0.67431641 C-58.69085159 0.6941861 -57.89024811 0.71405579 -57.06538391 0.73452759 C-56.2059166 0.7460788 -55.34644928 0.75763 -54.4609375 0.76953125 C-53.57734055 0.7888974 -52.69374359 0.80826355 -51.78337097 0.82821655 C-48.96114759 0.8879968 -46.13888339 0.93439141 -43.31640625 0.98046875 C-41.402977 1.01864997 -39.48956492 1.05770179 -37.57617188 1.09765625 C-32.88555604 1.19369707 -28.19485973 1.27773385 -23.50390625 1.35546875 C-23.50390625 0.69546875 -23.50390625 0.03546875 -23.50390625 -0.64453125 C-15.56510341 -3.40585398 -7.58146617 -4.22548517 0 0 Z " fill="#8FB7A6" transform="translate(183.50390625,104.64453125)"/>
<path d="M0 0 C0.33 0.66 0.66 1.32 1 2 C-0.98 2 -2.96 2 -5 2 C-5 2.66 -5 3.32 -5 4 C-6.11375 4.28875 -7.2275 4.5775 -8.375 4.875 C-12.00291092 5.69241329 -12.00291092 5.69241329 -14 8 C-14.71408334 9.98356483 -15.38617742 11.98315437 -16 14 C-19.1875 14.3125 -19.1875 14.3125 -23 14 C-25.875 11.5625 -25.875 11.5625 -28 9 C-28.33 8.67 -28.66 8.34 -29 8 C-29.42299956 4.86980323 -29.30513662 3.4449909 -27.5 0.8125 C-19.66420192 -4.86845361 -8.22222291 -4.54846374 0 0 Z " fill="#9EAFA5" transform="translate(135,157)"/>
<path d="M0 0 C0.80469727 0.28294922 1.60939453 0.56589844 2.43847656 0.85742188 C11.56790575 3.79640078 19.89470265 4.62815794 29.46044922 4.52148438 C31.76244766 4.4998832 34.06137191 4.52148809 36.36328125 4.546875 C43.84241613 4.55894266 50.36800458 4.21299389 57.22363281 0.85742188 C59 0 59 0 61 0 C61 0.66 61 1.32 61 2 C60.01 2 59.02 2 58 2 C58 2.99 58 3.98 58 5 C62.29 4.67 66.58 4.34 71 4 C62.28350775 8.35824612 53.63329969 8.15675061 43.98046875 8.16796875 C42.44982536 8.17296135 42.44982536 8.17296135 40.88825989 8.17805481 C38.74281256 8.1830859 36.59735751 8.18546433 34.4519043 8.18530273 C31.20673458 8.18748705 27.96190658 8.20567813 24.71679688 8.22460938 C10.12946214 8.26468582 -2.95292932 7.22256634 -17 3 C-17 2.67 -17 2.34 -17 2 C-11.72 2.33 -6.44 2.66 -1 3 C-0.67 2.01 -0.34 1.02 0 0 Z " fill="#74A793" transform="translate(109,174)"/>
<path d="M0 0 C1.65 0 3.3 0 5 0 C5 6.27 5 12.54 5 19 C-3.30078125 19.390625 -3.30078125 19.390625 -6 19 C-8.40959526 16.59554247 -8.94918235 15.40654117 -9.375 12 C-8.95311909 8.62495274 -8.57271448 7.22968588 -6 5 C-2.8125 4.75 -2.8125 4.75 0 5 C0 3.35 0 1.7 0 0 Z " fill="#353AF3" transform="translate(218,69)"/>
<path d="M0 0 C2.475 0.495 2.475 0.495 5 1 C5.33 0.67 5.66 0.34 6 0 C10.53488372 -0.23255814 10.53488372 -0.23255814 13 1 C13.969375 0.79375 14.93875 0.5875 15.9375 0.375 C19 0 19 0 20.6796875 1.12109375 C22.50641695 3.72067027 22.29840887 5.545082 22.1875 8.6875 C22.16042969 9.68136719 22.13335937 10.67523438 22.10546875 11.69921875 C22.07066406 12.45847656 22.03585938 13.21773437 22 14 C20.35 14 18.7 14 17 14 C17 10.37 17 6.74 17 3 C16.01 3.33 15.02 3.66 14 4 C13.67 7.3 13.34 10.6 13 14 C11.68 14 10.36 14 9 14 C8.67 10.7 8.34 7.4 8 4 C7.01 4 6.02 4 5 4 C4.67 7.3 4.34 10.6 4 14 C2.68 14 1.36 14 0 14 C0 9.38 0 4.76 0 0 Z " fill="#3630FB" transform="translate(112,74)"/>
<path d="M0 0 C1.19109375 -0.00386719 1.19109375 -0.00386719 2.40625 -0.0078125 C4.5 0.125 4.5 0.125 6.5 1.125 C6.5 2.775 6.5 4.425 6.5 6.125 C5.778125 5.774375 5.05625 5.42375 4.3125 5.0625 C1.17017428 4.01505809 -0.37318269 4.1695836 -3.5 5.125 C-4.83187793 6.23666864 -4.83187793 6.23666864 -4.6875 9.0625 C-4.83278733 12.23392859 -4.83278733 12.23392859 -2.5 14.125 C-0.43125966 14.7675235 -0.43125966 14.7675235 1.5 15.125 C1.5 13.805 1.5 12.485 1.5 11.125 C0.51 11.125 -0.48 11.125 -1.5 11.125 C-1.5 10.135 -1.5 9.145 -1.5 8.125 C1.14 8.125 3.78 8.125 6.5 8.125 C6.5 11.095 6.5 14.065 6.5 17.125 C2.42694429 18.48268524 -1.25195086 18.9061649 -5.5 18.125 C-8.13745361 16.3727607 -8.85226442 14.99524907 -10.5 12.125 C-11.23490789 8.12383483 -10.88814018 6.70721026 -8.625 3.3125 C-5.66438475 0.26480783 -4.1224399 -0.01338455 0 0 Z " fill="#3538F4" transform="translate(168.5,69.875)"/>
<path d="M0 0 C2.92297309 2.51772314 4.21074193 5.27290535 5.8125 8.75 C8.31371793 13.90176231 11.06111045 17.88578895 15 22 C17.28378212 24.61003671 18.00485992 26.0178197 18.9375 29.4375 C20.69048665 35.31516113 24.18640146 38.38980109 29 42 C28.67 43.32 28.34 44.64 28 46 C15.81644834 36.92535462 15.81644834 36.92535462 13 29 C10.82615445 23.13061701 7.87061019 19.16300729 3.7421875 14.4296875 C1.90406046 11.86620091 1.36422006 10.10138897 1 7 C0.01 6.67 -0.98 6.34 -2 6 C-1.67 5.34 -1.34 4.68 -1 4 C-0.67 4.33 -0.34 4.66 0 5 C0 3.35 0 1.7 0 0 Z " fill="#85B4A1" transform="translate(185,107)"/>
<path d="M0 0 C0.99 0.33 1.98 0.66 3 1 C3 2.32 3 3.64 3 5 C0.03 4.67 -2.94 4.34 -6 4 C-6.33 4.66 -6.66 5.32 -7 6 C-5.906875 6.103125 -4.81375 6.20625 -3.6875 6.3125 C0 7 0 7 1.9375 8.25 C3.43144549 10.7106161 3.49427897 12.17554877 3 15 C1.5625 16.8125 1.5625 16.8125 -1 18 C-4.77470437 18.36875442 -8.55448311 18.72275845 -12 17 C-12 15.35 -12 13.7 -12 12 C-11.46375 12.309375 -10.9275 12.61875 -10.375 12.9375 C-7.6015043 14.17827439 -4.99957163 14.5909675 -2 15 C-2 14.01 -2 13.02 -2 12 C-3.27875 11.731875 -4.5575 11.46375 -5.875 11.1875 C-9.49675855 10.42809901 -9.80051868 10.29922197 -12 7 C-11.78149085 4.66923568 -11.14805187 3.24385014 -9.9375 1.25 C-6.85145041 -0.74099973 -3.57365336 -0.37465721 0 0 Z " fill="#3539F3" transform="translate(74,70)"/>
<path d="M0 0 C1.9375 1 1.9375 1 3 3 C3.45982357 5.75894141 3.51068558 8.24574069 3 11 C0.81246717 13.6923481 -0.58423955 13.93936827 -4 14.4375 C-7 14 -7 14 -9.375 12.375 C-11.48706506 9.28813568 -11.61195145 7.6717087 -11 4 C-8.05323917 -0.47907646 -5.13567732 -0.65363166 0 0 Z " fill="#3535F6" transform="translate(204,74)"/>
<path d="M0 0 C1.9375 1 1.9375 1 3 3 C3.45982357 5.75894141 3.51068558 8.24574069 3 11 C0.81246717 13.6923481 -0.58423955 13.93936827 -4 14.4375 C-7 14 -7 14 -9.375 12.375 C-11.48706506 9.28813568 -11.61195145 7.6717087 -11 4 C-8.05323917 -0.47907646 -5.13567732 -0.65363166 0 0 Z " fill="#3535F6" transform="translate(188,74)"/>
<path d="M0 0 C6.34507042 0.59859155 6.34507042 0.59859155 8.9375 2.1875 C10.61154181 5.04321839 10.58435892 6.75356156 10 10 C7.13978221 13.05976787 5.35453122 14.85276835 1.125 15.3125 C0.073125 15.1578125 0.073125 15.1578125 -1 15 C-4.05023923 9.75358852 -4.05023923 9.75358852 -3.8125 6.1875 C-3 4 -3 4 -1 3 C-0.67 2.01 -0.34 1.02 0 0 Z " fill="#A1AFA6" transform="translate(163,156)"/>
<path d="M0 0 C2.0625 0.4375 2.0625 0.4375 4 1 C-1.23578784 6.23578784 -10.75137898 6.19862733 -17.734375 6.29296875 C-20.4078047 6.27331118 -23.07737962 6.23867373 -25.75 6.1875 C-27.14061029 6.17240584 -28.53123667 6.15872591 -29.921875 6.14648438 C-33.28167334 6.11148648 -36.64061774 6.06238853 -40 6 C-40 5.67 -40 5.34 -40 5 C-41.16571533 4.98018066 -42.33143066 4.96036133 -43.5324707 4.93994141 C-47.85446905 4.86391041 -52.17612962 4.77518924 -56.49780273 4.68261719 C-58.36882868 4.64431706 -60.23992853 4.609466 -62.11108398 4.578125 C-64.79958519 4.53249676 -67.48757723 4.47449912 -70.17578125 4.4140625 C-71.01337479 4.40251129 -71.85096832 4.39096008 -72.71394348 4.37905884 C-76.62373037 4.27953543 -78.6770953 4.2152698 -82 2 C-80.74331512 2.00333092 -80.74331512 2.00333092 -79.46124268 2.00672913 C-71.51826464 2.02686866 -63.57529534 2.04204326 -55.63229752 2.05181217 C-51.54993845 2.05700348 -47.46760071 2.06403194 -43.38525391 2.07543945 C-39.43652897 2.08640298 -35.48782438 2.092305 -31.53908539 2.09487724 C-30.04181346 2.09670746 -28.54454249 2.10028067 -27.04727936 2.10573006 C-13.98857957 2.19462563 -13.98857957 2.19462563 -1 1 C-0.67 0.67 -0.34 0.34 0 0 Z " fill="#6CAA91" transform="translate(186,182)"/>
<path d="M0 0 C1.37671875 -0.02126953 1.37671875 -0.02126953 2.78125 -0.04296875 C5.69552633 0.20407479 7.85358797 0.97456115 10.5 2.1875 C10.3125 4.0625 10.3125 4.0625 9.5 6.1875 C4.3180285 8.80141483 -0.81890707 8.77519927 -6.5 8.1875 C-9.6875 6.6875 -9.6875 6.6875 -11.5 5.1875 C-11.17 3.8675 -10.84 2.5475 -10.5 1.1875 C-6.95254915 0.38418233 -3.6361745 0.02553493 0 0 Z " fill="#30906A" transform="translate(140.5,148.8125)"/>
<path d="M0 0 C2.375 1.25 2.375 1.25 4 3 C4 4.32 4 5.64 4 7 C1.03 7 -1.94 7 -5 7 C-4.67 7.99 -4.34 8.98 -4 10 C-1.36 10 1.28 10 4 10 C3.67 11.32 3.34 12.64 3 14 C-5.02638522 14.61741425 -5.02638522 14.61741425 -8.5625 12.375 C-10.43910956 9.27451464 -10.59452734 7.56716403 -10 4 C-7.20125452 -0.09047416 -4.83066808 -0.70447243 0 0 Z " fill="#343BEE" transform="translate(105,74)"/>
<path d="M0 0 C2.375 1.25 2.375 1.25 4 3 C4 4.32 4 5.64 4 7 C1.03 7 -1.94 7 -5 7 C-4.67 7.99 -4.34 8.98 -4 10 C-1.36 10 1.28 10 4 10 C3.67 11.32 3.34 12.64 3 14 C-5.02638522 14.61741425 -5.02638522 14.61741425 -8.5625 12.375 C-10.43910956 9.27451464 -10.59452734 7.56716403 -10 4 C-7.20125452 -0.09047416 -4.83066808 -0.70447243 0 0 Z " fill="#343BEE" transform="translate(89,74)"/>
<path d="M0 0 C1.43791516 0.14168137 2.8753237 0.28851043 4.3125 0.4375 C5.11300781 0.51871094 5.91351563 0.59992188 6.73828125 0.68359375 C9 1 9 1 12 2 C13.94716646 2.11675815 15.89793477 2.17669925 17.84838867 2.20532227 C19.0494072 2.22526749 20.25042572 2.24521271 21.48783875 2.26576233 C22.78478165 2.28247482 24.08172455 2.29918732 25.41796875 2.31640625 C26.7589023 2.33698293 28.09982946 2.35797959 29.44075012 2.37937927 C32.96701889 2.43452627 36.49334548 2.48396794 40.01971436 2.53222656 C43.61931493 2.5824955 47.21883173 2.63815339 50.81835938 2.69335938 C57.87883352 2.80085071 64.93938282 2.90231565 72 3 C72 3.33 72 3.66 72 4 C58.70995205 4.93263494 45.41137414 5.16025439 32.0927124 5.23217773 C30.20680777 5.24400133 28.3209282 5.26103951 26.43511963 5.28344727 C23.73263018 5.31369124 21.03076581 5.32339961 18.328125 5.328125 C17.52239044 5.34043152 16.71665588 5.35273804 15.88650513 5.36541748 C10.12175975 5.3433381 5.3552116 4.10419596 0 2 C0 1.34 0 0.68 0 0 Z " fill="#86B3A3" transform="translate(95,183)"/>
<path d="M0 0 C2.01822917 0.06510417 4.03645833 0.13020833 6.0546875 0.1953125 C6.3846875 1.5153125 6.7146875 2.8353125 7.0546875 4.1953125 C4.7446875 3.8653125 2.4346875 3.5353125 0.0546875 3.1953125 C0.0546875 3.8553125 0.0546875 4.5153125 0.0546875 5.1953125 C1.0240625 5.3396875 1.9934375 5.4840625 2.9921875 5.6328125 C6.0546875 6.1953125 6.0546875 6.1953125 7.0546875 7.1953125 C7.2421875 9.6328125 7.2421875 9.6328125 7.0546875 12.1953125 C5.0546875 14.1953125 5.0546875 14.1953125 2.890625 14.390625 C1.67246094 14.35582031 1.67246094 14.35582031 0.4296875 14.3203125 C-0.38757813 14.30226563 -1.20484375 14.28421875 -2.046875 14.265625 C-2.67335937 14.24242188 -3.29984375 14.21921875 -3.9453125 14.1953125 C-4.2753125 12.5453125 -4.6053125 10.8953125 -4.9453125 9.1953125 C-2.3053125 9.8553125 0.3346875 10.5153125 3.0546875 11.1953125 C3.0546875 10.5353125 3.0546875 9.8753125 3.0546875 9.1953125 C2.2915625 9.2571875 1.5284375 9.3190625 0.7421875 9.3828125 C-1.9453125 9.1953125 -1.9453125 9.1953125 -3.8203125 7.9453125 C-4.9453125 6.1953125 -4.9453125 6.1953125 -4.7578125 4.1328125 C-3.68766709 1.58092728 -2.84813576 0.28595741 0 0 Z " fill="#3537F5" transform="translate(140.9453125,73.8046875)"/>
<path d="M0 0 C0 0.66 0 1.32 0 2 C-0.99 2 -1.98 2 -3 2 C-3 2.99 -3 3.98 -3 5 C3.435 4.505 3.435 4.505 10 4 C3.75 7.125 3.75 7.125 -0.44970703 7.11352539 C-1.37051056 7.11344986 -2.29131409 7.11337433 -3.24002075 7.11329651 C-4.73382767 7.10555458 -4.73382767 7.10555458 -6.2578125 7.09765625 C-7.27600067 7.0962413 -8.29418884 7.09482635 -9.3432312 7.09336853 C-12.60385035 7.087759 -15.86440151 7.07520488 -19.125 7.0625 C-21.33203026 7.05748623 -23.53906159 7.05292311 -25.74609375 7.04882812 C-31.16408581 7.03778648 -36.58203805 7.02103905 -42 7 C-42 6.67 -42 6.34 -42 6 C-41.38592285 5.98018066 -40.7718457 5.96036133 -40.13916016 5.93994141 C-37.30074617 5.84346198 -34.46294843 5.73429198 -31.625 5.625 C-30.65949219 5.5940625 -29.69398438 5.563125 -28.69921875 5.53125 C-19.03199246 5.14196572 -9.05198184 0 0 0 Z " fill="#82B09E" transform="translate(170,174)"/>
<path d="M0 0 C0 1.32 0 2.64 0 4 C-6.625 7 -6.625 7 -10 7 C-10 7.66 -10 8.32 -10 9 C-6.7 9.99 -3.4 10.98 0 12 C0 13.32 0 14.64 0 16 C-5.46737191 14.25192871 -10.75824848 12.34205919 -16 10 C-16 8.68 -16 7.36 -16 6 C-13.7101766 4.9955866 -11.4183401 3.99632388 -9.125 3 C-8.14853516 2.57074219 -8.14853516 2.57074219 -7.15234375 2.1328125 C-2.2265625 0 -2.2265625 0 0 0 Z " fill="#353AF1" transform="translate(58,72)"/>
<path d="M0 0 C2.475 0.99 2.475 0.99 5 2 C4.625 4.9375 4.625 4.9375 4 8 C3.01 8.495 3.01 8.495 2 9 C2.33 10.32 2.66 11.64 3 13 C1.20763933 12.52343588 -0.58386897 12.04366502 -2.375 11.5625 C-3.37273437 11.29566406 -4.37046875 11.02882812 -5.3984375 10.75390625 C-8 10 -8 10 -10 9 C-10 8.34 -10 7.68 -10 7 C-10.66 7 -11.32 7 -12 7 C-12 6.01 -12 5.02 -12 4 C-8.7 3.67 -5.4 3.34 -2 3 C-2 3.66 -2 4.32 -2 5 C-0.35 5.33 1.3 5.66 3 6 C1.515 3.03 1.515 3.03 0 0 Z " fill="#9CB3A7" transform="translate(170,141)"/>
<path d="M0 0 C4.95 1.98 9.9 3.96 15 6 C15 7.32 15 8.64 15 10 C10.05 11.98 5.1 13.96 0 16 C0 14.68 0 13.36 0 12 C2.97 11.01 5.94 10.02 9 9 C9 8.34 9 7.68 9 7 C6.03 6.01 3.06 5.02 0 4 C0 2.68 0 1.36 0 0 Z " fill="#3537F5" transform="translate(228,72)"/>
<path d="M0 0 C2.125 0.375 2.125 0.375 4 1 C3.52949219 1.37511719 3.05898437 1.75023438 2.57421875 2.13671875 C-1.12859562 5.18023284 -3.60220262 7.80385459 -6 12 C-6.99 12.33 -7.98 12.66 -9 13 C-9.1546875 14.5159375 -9.1546875 14.5159375 -9.3125 16.0625 C-10.3269077 21.87228957 -11.61302301 26.26249602 -16.375 29.9375 C-19.32457219 31.85378257 -21.42723238 32.54132843 -25 32 C-20.40077821 28.16731518 -20.40077821 28.16731518 -17.98828125 27.16015625 C-15.35459336 25.62340712 -14.71157684 24.05828276 -13.4375 21.3125 C-13.01726562 20.42046875 -12.59703125 19.5284375 -12.1640625 18.609375 C-11.19385415 16.43454555 -10.24036517 14.25563585 -9.3125 12.0625 C-8 9 -8 9 -6 6 C-5.34 6 -4.68 6 -4 6 C-3.566875 5.071875 -3.566875 5.071875 -3.125 4.125 C-2 2 -2 2 0 0 Z " fill="#80AD9A" transform="translate(96,122)"/>
<path d="M0 0 C0 0.99 0 1.98 0 3 C8.415 2.505 8.415 2.505 17 2 C12.87272638 4.06363681 9.73160349 4.42167583 5.25 4.625 C4.20392578 4.68300781 4.20392578 4.68300781 3.13671875 4.7421875 C1.42489182 4.83598624 -0.28751682 4.91906174 -2 5 C-2 4.67 -2 4.34 -2 4 C-3.58294782 3.94562393 -5.16644256 3.90703729 -6.75 3.875 C-7.63171875 3.85179688 -8.5134375 3.82859375 -9.421875 3.8046875 C-12.14388085 4.01090006 -13.62457399 4.73244075 -16 6 C-16.99 6 -17.98 6 -19 6 C-17.97386916 3.02422056 -17.03368909 2.02245939 -14.375 0.25 C-9.40375628 -1.59120138 -5.10697031 -1.70232344 0 0 Z " fill="#81B09D" transform="translate(117,111)"/>
<path d="M0 0 C4.87521572 1.39291878 7.19424816 3.83145441 10 8 C10.4375 11.25 10.4375 11.25 10 14 C9.34 14.66 8.68 15.32 8 16 C7.67 15.34 7.34 14.68 7 14 C5.68 15.32 4.36 16.64 3 18 C2.34 17.67 1.68 17.34 1 17 C1.495 16.62875 1.99 16.2575 2.5 15.875 C4.22131114 14.00815575 4.22131114 14.00815575 4.625 11.125 C3.90474593 7.52372964 3.36918831 7.16944187 0.5 5.125 C-0.65430177 4.39669055 -1.81757573 3.68170379 -3 3 C-2.01 2.67 -1.02 2.34 0 2 C0 1.34 0 0.68 0 0 Z " fill="#3D9572" transform="translate(168,152)"/>
<path d="M0 0 C13.86 0 27.72 0 42 0 C42 0.33 42 0.66 42 1 C36.63904667 2.12862175 31.44693314 2.09688221 26 2 C26 2.66 26 3.32 26 4 C22.37 4 18.74 4 15 4 C15 3.34 15 2.68 15 2 C10.05 1.67 5.1 1.34 0 1 C0 0.67 0 0.34 0 0 Z " fill="#4D9A7B" transform="translate(119,109)"/>
<path d="M0 0 C1.32 0 2.64 0 4 0 C3.42655063 2.86724686 3.1385485 3.8614515 1 6 C0.59099957 9.10840328 0.63354518 10.49612463 2.5 13.0625 C2.995 13.701875 3.49 14.34125 4 15 C4 16.32 4 17.64 4 19 C1 19 1 19 -1.1875 17.0625 C-3.62743808 12.939846 -3.70287772 9.68302866 -3 5 C-1.75 1.9375 -1.75 1.9375 0 0 Z " fill="#31916B" transform="translate(106,154)"/>
<path d="M0 0 C2.92764905 1.35973034 5.34414908 2.94026223 7.875 4.9375 C11.09423775 7.40317086 14.28700721 9.32915324 18 11 C18 11.99 18 12.98 18 14 C11.51927697 14 8.02361686 11.14860307 3.0390625 7.203125 C0.76599361 4.74716551 0.31015206 3.28531438 0 0 Z " fill="#419573" transform="translate(118,128)"/>
<path d="M0 0 C0.99 0.66 1.98 1.32 3 2 C3 2.99 3 3.98 3 5 C2.33613281 4.95359375 1.67226562 4.9071875 0.98828125 4.859375 C-4.81719464 4.5404274 -4.81719464 4.5404274 -9.9375 7 C-10.618125 7.66 -11.29875 8.32 -12 9 C-12.99 9 -13.98 9 -15 9 C-15 6.75 -15 6.75 -14 4 C-9.75374862 0.82797928 -5.31013023 -0.7409484 0 0 Z " fill="#30906A" transform="translate(121,139)"/>
<path d="M0 0 C-3.28291722 1.96975033 -5.64086398 2.1941448 -9.4375 2.0625 C-13.14793659 1.94380731 -16.3794696 2.15236221 -20 3 C-20.33 3.99 -20.66 4.98 -21 6 C-20.34 6.33 -19.68 6.66 -19 7 C-19.99 7.33 -20.98 7.66 -22 8 C-22 7.34 -22 6.68 -22 6 C-26.62 6.33 -31.24 6.66 -36 7 C-32.75821647 4.83881098 -29.84400869 3.91216266 -26.15625 2.78125 C-23.75305559 2.00732212 -23.75305559 2.00732212 -21 0 C-13.92933262 -1.44032113 -7.13914627 -0.70738492 0 0 Z " fill="#72AD97" transform="translate(150,148)"/>
<path d="M0 0 C-0.83982395 5.04985051 -4.03775565 7.10139092 -8 10 C-11.85196902 12.26586413 -13.48378819 13 -18 13 C-18 12.01 -18 11.02 -18 10 C-17.41992188 9.69707031 -16.83984375 9.39414063 -16.2421875 9.08203125 C-12.42875368 7.03687285 -8.87756422 5.0622411 -5.625 2.1875 C-3 0 -3 0 0 0 Z " fill="#3E9471" transform="translate(162,129)"/>
<path d="M0 0 C2.6875 2.25 2.6875 2.25 3.5625 4.5 C3.60375 5.0775 3.645 5.655 3.6875 6.25 C1.2125 5.755 1.2125 5.755 -1.3125 5.25 C-1.3125 4.59 -1.3125 3.93 -1.3125 3.25 C-5.6025 3.25 -9.8925 3.25 -14.3125 3.25 C-13.9825 1.93 -13.6525 0.61 -13.3125 -0.75 C-8.33943946 -2.28017247 -4.67402772 -2.46929766 0 0 Z " fill="#34916C" transform="translate(169.3125,140.75)"/>
<path d="M0 0 C0.33 1.32 0.66 2.64 1 4 C-1.33109197 5.00556908 -3.66456019 6.00464623 -6 7 C-6.9075 7.391875 -7.815 7.78375 -8.75 8.1875 C-11 9 -11 9 -14 9 C-11.03668418 2.08559643 -7.29196623 -0.15852101 0 0 Z " fill="#84B2A0" transform="translate(217,104)"/>
<path d="M0 0 C0.66 0.33 1.32 0.66 2 1 C1.34 1.66 0.68 2.32 0 3 C2.64 3 5.28 3 8 3 C8 3.33 8 3.66 8 4 C7.04287109 4.16435547 7.04287109 4.16435547 6.06640625 4.33203125 C5.24011719 4.49058594 4.41382813 4.64914063 3.5625 4.8125 C2.73878906 4.96332031 1.91507813 5.11414063 1.06640625 5.26953125 C0.38449219 5.51058594 -0.29742187 5.75164062 -1 6 C-1.33 6.99 -1.66 7.98 -2 9 C3.445 8.505 3.445 8.505 9 8 C5.77208445 10.1519437 4.71599191 10.20086443 1 10 C1 10.99 1 11.98 1 13 C1.66 13.33 2.32 13.66 3 14 C-1.81430721 14.56638908 -4.20307814 12.82561627 -8 10 C-7.34 9.67 -6.68 9.34 -6 9 C-5.01 9.33 -4.02 9.66 -3 10 C-3 8.68 -3 7.36 -3 6 C-4.32 5.67 -5.64 5.34 -7 5 C-6.030625 4.360625 -5.06125 3.72125 -4.0625 3.0625 C-1.23963731 1.3034741 -1.23963731 1.3034741 0 0 Z " fill="#81AE9C" transform="translate(157,135)"/>
<path d="M0 0 C2.9375 0.375 2.9375 0.375 6 1 C7.32229189 3.64458379 7.09677194 5.67761301 7.0625 8.625 C7.05347656 9.62789062 7.04445312 10.63078125 7.03515625 11.6640625 C7.02355469 12.43492188 7.01195312 13.20578125 7 14 C5.35 14 3.7 14 2 14 C2 10.37 2 6.74 2 3 C1.01 2.67 0.02 2.34 -1 2 C-0.67 1.34 -0.34 0.68 0 0 Z " fill="#353CF0" transform="translate(127,74)"/>
<path d="M0 0 C2.64 1.98 5.28 3.96 8 6 C7.67 8.31 7.34 10.62 7 13 C3.37 13 -0.26 13 -4 13 C-4 12.34 -4 11.68 -4 11 C-0.7 11.33 2.6 11.66 6 12 C5.67 11.01 5.34 10.02 5 9 C2.59454362 7.79727181 1.05003047 7.89928528 -1.625 7.9375 C-2.44226563 7.94652344 -3.25953125 7.95554688 -4.1015625 7.96484375 C-4.72804688 7.97644531 -5.35453125 7.98804688 -6 8 C-6 7.01 -6 6.02 -6 5 C-4.02 5 -2.04 5 0 5 C0 3.35 0 1.7 0 0 Z " fill="#86B09F" transform="translate(118,132)"/>
<path d="M0 0 C2.31 0 4.62 0 7 0 C7.33 0.99 7.66 1.98 8 3 C8.639375 3.309375 9.27875 3.61875 9.9375 3.9375 C12.47802844 5.24625707 12.85331176 6.45466064 14 9 C3.68372943 7.08957952 3.68372943 7.08957952 0 4 C0 2.68 0 1.36 0 0 Z " fill="#9EB8AD" transform="translate(63,104)"/>
<path d="M0 0 C5.98993047 -0.3152595 9.63560356 0.31780178 15 3 C15 4.32 15 5.64 15 7 C9.22621075 6.5188509 5.04140164 4.81532819 0 2 C0 1.34 0 0.68 0 0 Z " fill="#7FB09D" transform="translate(220,142)"/>
<path d="M0 0 C5.61 0.33 11.22 0.66 17 1 C17 1.99 17 2.98 17 4 C11.33357449 5.22517308 5.76291482 5.09228867 0 5 C0 3.35 0 1.7 0 0 Z " fill="#2D9068" transform="translate(117,109)"/>
<path d="M0 0 C0.226875 0.5775 0.45375 1.155 0.6875 1.75 C2.4355212 4.74660777 4.07743769 6.09264354 7 8 C9.91526738 8.7411757 12.81901783 9.00911627 15.8125 9.25 C16.60076172 9.32734375 17.38902344 9.4046875 18.20117188 9.484375 C20.13268114 9.67167287 22.06620779 9.83796228 24 10 C24 10.33 24 10.66 24 11 C3.84738041 11.738041 3.84738041 11.738041 -4 7 C-3.01 6.34 -2.02 5.68 -1 5 C-0.27034634 2.43717258 -0.27034634 2.43717258 0 0 Z " fill="#89B3A2" transform="translate(120,165)"/>
<path d="M0 0 C0 0.66 0 1.32 0 2 C-5.36190101 4.61407872 -10.03435204 6.49228528 -16 7 C-15.67 5.35 -15.34 3.7 -15 2 C-9.87080814 -0.10428384 -5.4389165 -0.21755666 0 0 Z " fill="#85B19E" transform="translate(60,142)"/>
<path d="M0 0 C4.17910132 1.60734666 6.62941515 3.18072441 9 7 C4.80716882 6.35155914 0.73500079 5.48783354 -3.375 4.4375 C-4.43460938 4.16808594 -5.49421875 3.89867188 -6.5859375 3.62109375 C-7.38257813 3.41613281 -8.17921875 3.21117188 -9 3 C-9 2.34 -9 1.68 -9 1 C-5.92805092 -0.53597454 -3.39755707 -0.2265038 0 0 Z " fill="#8AB2A2" transform="translate(173,110)"/>
<path d="M0 0 C0.99200688 3.08624362 1.16328801 4.95755443 0 8 C-1.9375 11.25 -1.9375 11.25 -4 14 C-4.66 14 -5.32 14 -6 14 C-6.33 15.98 -6.66 17.96 -7 20 C-7.66 19.01 -8.32 18.02 -9 17 C-9.66 17.33 -10.32 17.66 -11 18 C-9.67433653 13.28652988 -6.83427786 10.46465428 -3.62109375 6.9375 C-1.80414016 4.76591209 -0.7668588 2.72660908 0 0 Z " fill="#7EB39E" transform="translate(89,116)"/>
<path d="M0 0 C0.33 1.65 0.66 3.3 1 5 C-5.93 4.505 -5.93 4.505 -13 4 C-12.67 3.01 -12.34 2.02 -12 1 C-8.32433144 -0.61729417 -3.92760325 -0.06546005 0 0 Z " fill="#7DB19D" transform="translate(234,118)"/>
<path d="M0 0 C3.68007532 0.18098731 6.40147147 0.85636692 9.8125 2.1875 C9.8125 2.8475 9.8125 3.5075 9.8125 4.1875 C3.3775 4.6825 3.3775 4.6825 -3.1875 5.1875 C-3.5175 3.8675 -3.8475 2.5475 -4.1875 1.1875 C-3.1875 0.1875 -3.1875 0.1875 0 0 Z " fill="#80B19D" transform="translate(49.1875,117.8125)"/>
<path d="M0 0 C1.43088528 2.86177057 0.59991697 4.93375773 0 8 C0.66 8 1.32 8 2 8 C2 8.66 2 9.32 2 10 C3.65 10.33 5.3 10.66 7 11 C7.33 12.98 7.66 14.96 8 17 C4.508263 15.44811689 1.67633198 13.74866528 -1 11 C-1.89066066 8.17386523 -1.95182895 6.03477624 -2 3 C-1.34 2.01 -0.68 1.02 0 0 Z " fill="#7CAD98" transform="translate(70,154)"/>
<path d="M0 0 C3.39512672 1.45505431 5.71110257 3.07968259 8 6 C8.875 9.5625 8.875 9.5625 9 13 C8.01 14.485 8.01 14.485 7 16 C6.87882813 15.28972656 6.75765625 14.57945312 6.6328125 13.84765625 C6.46523437 12.92855469 6.29765625 12.00945312 6.125 11.0625 C5.88136719 9.68771484 5.88136719 9.68771484 5.6328125 8.28515625 C5.42398438 7.53105469 5.21515625 6.77695313 5 6 C4.34 5.67 3.68 5.34 3 5 C3.33 5.66 3.66 6.32 4 7 C4.13415472 9.6723621 4.04318541 12.32250488 4 15 C3.67 15 3.34 15 3 15 C2 10 1 5 0 0 Z " fill="#75AB96" transform="translate(213,149)"/>
<path d="M0 0 C2.475 0.99 2.475 0.99 5 2 C4.625 4.9375 4.625 4.9375 4 8 C3.01 8.495 3.01 8.495 2 9 C2.33 10.32 2.66 11.64 3 13 C-0.63 12.01 -4.26 11.02 -8 10 C-8 9.67 -8 9.34 -8 9 C-5.69 9 -3.38 9 -1 9 C-0.67 7.68 -0.34 6.36 0 5 C0.99 5.33 1.98 5.66 3 6 C1.515 3.03 1.515 3.03 0 0 Z " fill="#83AD9B" transform="translate(170,141)"/>
<path d="M0 0 C10.23 0.33 20.46 0.66 31 1 C31 1.33 31 1.66 31 2 C21.1 2.33 11.2 2.66 1 3 C0.67 2.01 0.34 1.02 0 0 Z " fill="#78AB97" transform="translate(119,178)"/>
<path d="M0 0 C2.125 0.375 2.125 0.375 4 1 C3.52949219 1.37511719 3.05898437 1.75023438 2.57421875 2.13671875 C-1.10583286 5.16152307 -3.69976673 7.76272818 -6 12 C-6.99 12.495 -6.99 12.495 -8 13 C-7.125 8.25 -7.125 8.25 -6 6 C-5.34 6 -4.68 6 -4 6 C-3.71125 5.38125 -3.4225 4.7625 -3.125 4.125 C-2 2 -2 2 0 0 Z " fill="#8EB2A3" transform="translate(96,122)"/>
<path d="M0 0 C0.33 0.66 0.66 1.32 1 2 C3.12576782 2.46651207 3.12576782 2.46651207 5.5625 2.625 C6.38878906 2.69976562 7.21507812 2.77453125 8.06640625 2.8515625 C8.70449219 2.90054688 9.34257812 2.94953125 10 3 C8.8125 4.5625 8.8125 4.5625 7 6 C4.78125 5.71875 4.78125 5.71875 2 5 C-0.49791151 4.80451127 -2.99837009 4.64009128 -5.5 4.5 C-9.76443071 4.26119188 -13.83417619 3.96134396 -18 3 C-18 2.67 -18 2.34 -18 2 C-12.06 2.33 -6.12 2.66 0 3 C0 2.01 0 1.02 0 0 Z " fill="#61A087" transform="translate(163,111)"/>
<path d="M0 0 C1.1055189 0.93590504 2.20935453 1.87379858 3.3125 2.8125 C3.92738281 3.33457031 4.54226562 3.85664063 5.17578125 4.39453125 C5.77777344 4.92433594 6.37976563 5.45414063 7 6 C7.59167969 6.47824219 8.18335938 6.95648438 8.79296875 7.44921875 C9.19128906 7.96097656 9.58960938 8.47273437 10 9 C9.67 10.32 9.34 11.64 9 13 C6.03 10.69 3.06 8.38 0 6 C0.66 5.67 1.32 5.34 2 5 C1.34 3.35 0.68 1.7 0 0 Z " fill="#85B2A1" transform="translate(204,140)"/>
<path d="M0 0 C4.78478822 -0.09764874 9.27685687 0.22887459 14 1 C14 1.66 14 2.32 14 3 C12.68 3 11.36 3 10 3 C10.33 3.99 10.66 4.98 11 6 C9.53775201 5.57576756 8.08026588 5.13509755 6.625 4.6875 C5.81289062 4.44386719 5.00078125 4.20023437 4.1640625 3.94921875 C2 3 2 3 0 0 Z " fill="#479A7A" transform="translate(169,115)"/>
<path d="M0 0 C1.6396875 0.2165625 1.6396875 0.2165625 3.3125 0.4375 C8.529258 1.09310693 13.76234747 1.54748223 19 2 C19 2.66 19 3.32 19 4 C20.32 4.33 21.64 4.66 23 5 C14.73594051 5.56993514 7.8022142 3.48605403 0 1 C0 0.67 0 0.34 0 0 Z " fill="#77AB97" transform="translate(92,176)"/>
<path d="M0 0 C0.99 0.33 1.98 0.66 3 1 C3.33 4.63 3.66 8.26 4 12 C2.02 12.99 2.02 12.99 0 14 C0 9.38 0 4.76 0 0 Z " fill="#94B4A6" transform="translate(216,154)"/>
<path d="M0 0 C2.0625 0.4375 2.0625 0.4375 4 1 C4 2.98 4 4.96 4 7 C2.0625 7.5625 2.0625 7.5625 0 8 C-1 7 -1 7 -1.125 4 C-1 1 -1 1 0 0 Z " fill="#27896F" transform="translate(199,77)"/>
<path d="M0 0 C2.0625 0.4375 2.0625 0.4375 4 1 C4 2.98 4 4.96 4 7 C2.0625 7.5625 2.0625 7.5625 0 8 C-1 7 -1 7 -1.125 4 C-1 1 -1 1 0 0 Z " fill="#27896F" transform="translate(183,77)"/>
<path d="M0 0 C0.66 0.33 1.32 0.66 2 1 C2 1.99 2 2.98 2 4 C-2.22857143 8 -2.22857143 8 -6 8 C-5.8125 5.6875 -5.8125 5.6875 -5 3 C-2.5625 1.125 -2.5625 1.125 0 0 Z " fill="#3C9370" transform="translate(112,140)"/>
<path d="M0 0 C0.66 0 1.32 0 2 0 C2.33 1.98 2.66 3.96 3 6 C3.66 6 4.32 6 5 6 C5 7.65 5 9.3 5 11 C2.5 10 2.5 10 0 8 C-0.46837899 5.20625708 -0.23424505 2.85778964 0 0 Z " fill="#95B3A5" transform="translate(60,158)"/>
<path d="M0 0 C-0.99 0.495 -0.99 0.495 -2 1 C-1.67 1.66 -1.34 2.32 -1 3 C-4.28696233 3.79953138 -5.71023192 4.09658936 -9 3 C-10.66821323 3.32550502 -12.33499557 3.65846063 -14 4 C-14.66 3.67 -15.32 3.34 -16 3 C-4.59558824 -1.83823529 -4.59558824 -1.83823529 0 0 Z " fill="#77AB97" transform="translate(195,180)"/>
<path d="M0 0 C-0.33 0.99 -0.66 1.98 -1 3 C-0.34 3.66 0.32 4.32 1 5 C-3.75 7 -3.75 7 -6 7 C-6.99 7.66 -7.98 8.32 -9 9 C-7.67183131 4.6532661 -5.0855272 0 0 0 Z " fill="#3E9673" transform="translate(103,107)"/>
<path d="M0 0 C-1.65 0.66 -3.3 1.32 -5 2 C-5 2.33 -5 2.66 -5 3 C-8.96 3 -12.92 3 -17 3 C-17 2.67 -17 2.34 -17 2 C-15.35 1.67 -13.7 1.34 -12 1 C-12 0.67 -12 0.34 -12 0 C-10.37585622 -0.19477739 -8.75063577 -0.38059458 -7.125 -0.5625 C-6.22007812 -0.66691406 -5.31515625 -0.77132812 -4.3828125 -0.87890625 C-2 -1 -2 -1 0 0 Z " fill="#71AF97" transform="translate(147,157)"/>
<path d="M0 0 C4.29 0 8.58 0 13 0 C13 0.33 13 0.66 13 1 C7.555 1.495 7.555 1.495 2 2 C2 2.99 2 3.98 2 5 C0.02 5.99 0.02 5.99 -2 7 C-2.33 6.01 -2.66 5.02 -3 4 C-3.66 3.67 -4.32 3.34 -5 3 C-3.35 2.67 -1.7 2.34 0 2 C0 1.34 0 0.68 0 0 Z " fill="#82B29F" transform="translate(101,102)"/>
<path d="M0 0 C0.99 0 1.98 0 3 0 C3 2.64 3 5.28 3 8 C1.68 7.67 0.36 7.34 -1 7 C-1.04254356 5.00045254 -1.04080783 2.99958364 -1 1 C-0.67 0.67 -0.34 0.34 0 0 Z " fill="#268B6A" transform="translate(215,77)"/>
<path d="M0 0 C2.0625 0.4375 2.0625 0.4375 4 1 C0.86730295 4.13269705 -1.97328423 4.05494397 -6.25 4.0625 C-8.10625 4.0315625 -8.10625 4.0315625 -10 4 C-9.67 3.34 -9.34 2.68 -9 2 C-7.1875 1.62109375 -7.1875 1.62109375 -5 1.4375 C-2.21067942 1.37334592 -2.21067942 1.37334592 0 0 Z " fill="#8DB2A3" transform="translate(186,182)"/>
<path d="M0 0 C-0.99 0.99 -1.98 1.98 -3 3 C-3.66 2.71125 -4.32 2.4225 -5 2.125 C-8.62499465 0.76562701 -12.23346693 -0.10624639 -16 -1 C-16 -1.33 -16 -1.66 -16 -2 C-10.10304872 -3.70701221 -5.58011183 -1.95193635 0 0 Z " fill="#3E9270" transform="translate(160,149)"/>
<path d="M0 0 C-0.3125 1.875 -0.3125 1.875 -1 4 C-1.99 4.66 -2.98 5.32 -4 6 C-4 5.34 -4 4.68 -4 4 C-5.32 4.99 -6.64 5.98 -8 7 C-8.66 6.67 -9.32 6.34 -10 6 C-8.90398831 4.99106869 -7.79786082 3.99311775 -6.6875 3 C-6.07261719 2.443125 -5.45773438 1.88625 -4.82421875 1.3125 C-3 0 -3 0 0 0 Z " fill="#4A9777" transform="translate(162,129)"/>
<path d="M0 0 C2.64892779 0.38006355 3.80532155 0.80085645 5.703125 2.7421875 C6.21359375 3.44601563 6.7240625 4.14984375 7.25 4.875 C8.03117188 5.92300781 8.03117188 5.92300781 8.828125 6.9921875 C10 9 10 9 10 12 C9.236875 11.21625 8.47375 10.4325 7.6875 9.625 C5.09108195 6.92742283 5.09108195 6.92742283 2 5 C2.33 4.34 2.66 3.68 3 3 C2.34 3 1.68 3 1 3 C0.67 2.01 0.34 1.02 0 0 Z " fill="#7EAF9B" transform="translate(182,122)"/>
<path d="M0 0 C2.6015625 -0.29296875 2.6015625 -0.29296875 5.625 -0.1875 C7.12933594 -0.14689453 7.12933594 -0.14689453 8.6640625 -0.10546875 C9.43492188 -0.07066406 10.20578125 -0.03585938 11 0 C11 0.66 11 1.32 11 2 C4.565 2.495 4.565 2.495 -2 3 C-1.34 2.01 -0.68 1.02 0 0 Z " fill="#9FBBAF" transform="translate(103,103)"/>
<path d="M0 0 C4.84659077 0.59104765 8.60748167 1.97944157 13 4 C10.03549787 4.98816738 8.08189674 5.07704742 5 5 C4.01 5 3.02 5 2 5 C2 4.01 2 3.02 2 2 C1.34 1.34 0.68 0.68 0 0 Z " fill="#83B1A0" transform="translate(148,149)"/>
<path d="M0 0 C-1.59915881 0.69906942 -3.20455045 1.38389468 -4.8125 2.0625 C-5.70582031 2.44535156 -6.59914063 2.82820312 -7.51953125 3.22265625 C-10 4 -10 4 -13 3 C-11.00584635 0.30202742 -9.87486211 -0.02681526 -6.5 -0.75 C-3 -1 -3 -1 0 0 Z " fill="#2C8D66" transform="translate(124,151)"/>
<path d="M0 0 C-0.66 0 -1.32 0 -2 0 C-2 0.66 -2 1.32 -2 2 C-0.35 2.33 1.3 2.66 3 3 C-0.42943519 4.18771723 -2.37784675 3.80226223 -5.75 2.5625 C-6.54921875 2.27503906 -7.3484375 1.98757812 -8.171875 1.69140625 C-8.77515625 1.46324219 -9.3784375 1.23507813 -10 1 C-10 0.67 -10 0.34 -10 0 C-6.33694766 -0.74926071 -3.57644848 -1.2380014 0 0 Z " fill="#73A992" transform="translate(97,183)"/>
<path d="M0 0 C3.0916909 2.52956528 3.90931332 5.22454612 5 9 C3.68 9 2.36 9 1 9 C1 8.34 1 7.68 1 7 C0.01 6.67 -0.98 6.34 -2 6 C-1.67 5.34 -1.34 4.68 -1 4 C-0.67 4.33 -0.34 4.66 0 5 C0 3.35 0 1.7 0 0 Z " fill="#74AD97" transform="translate(185,107)"/>
<path d="M0 0 C2.05078125 0.03255208 4.1015625 0.06510417 6.15234375 0.09765625 C5.82234375 1.08765625 5.49234375 2.07765625 5.15234375 3.09765625 C2.27734375 3.22265625 2.27734375 3.22265625 -0.84765625 3.09765625 C-1.50765625 2.43765625 -2.16765625 1.77765625 -2.84765625 1.09765625 C-1.84765625 0.09765625 -1.84765625 0.09765625 0 0 Z " fill="#288D65" transform="translate(167.84765625,181.90234375)"/>
<path d="M0 0 C0 0.66 0 1.32 0 2 C-3.63423209 4.32590854 -6.77088331 4.16265833 -11 4 C-7.30030748 0.96096686 -4.76995305 0 0 0 Z " fill="#89B2A3" transform="translate(202,178)"/>
<path d="M0 0 C0 0.99 0 1.98 0 3 C-3.96 3 -7.92 3 -12 3 C-3 -1.5 -3 -1.5 0 0 Z " fill="#39926E" transform="translate(160,175)"/>
<path d="M0 0 C0.66 0 1.32 0 2 0 C3.35439668 2.70879335 3.06501451 5.00933268 3 8 C2.01 8.33 1.02 8.66 0 9 C0 6.03 0 3.06 0 0 Z " fill="#7DAE9A" transform="translate(209,155)"/>
<path d="M0 0 C1.98 0 3.96 0 6 0 C6 1.32 6 2.64 6 4 C4.35 4 2.7 4 1 4 C0.67 2.68 0.34 1.36 0 0 Z " fill="#91B3A2" transform="translate(229,145)"/>
<path d="M0 0 C1.98 0 3.96 0 6 0 C6.33 0.99 6.66 1.98 7 3 C4.69 3.33 2.38 3.66 0 4 C0 2.68 0 1.36 0 0 Z " fill="#9CB5A8" transform="translate(126,141)"/>
<path d="M0 0 C0.99 0.33 1.98 0.66 3 1 C4.1875 4.5625 4.1875 4.5625 5 8 C3.68 7.67 2.36 7.34 1 7 C0.67 4.69 0.34 2.38 0 0 Z " fill="#93B5A8" transform="translate(201,137)"/>
<path d="M0 0 C2 1.375 2 1.375 4 3 C4 3.66 4 4.32 4 5 C2.53984709 4.71758359 1.08190207 4.42373386 -0.375 4.125 C-1.18710938 3.96257812 -1.99921875 3.80015625 -2.8359375 3.6328125 C-5 3 -5 3 -7 1 C-4.69 1.33 -2.38 1.66 0 2 C0 1.34 0 0.68 0 0 Z " fill="#6DAD95" transform="translate(73,108)"/>
<path d="M0 0 C0 0.99 0 1.98 0 3 C-7.42857143 4.28571429 -7.42857143 4.28571429 -11 3 C-4.5 0 -4.5 0 0 0 Z " fill="#77AE98" transform="translate(206,175)"/>
<path d="M0 0 C2.475 0.495 2.475 0.495 5 1 C5 1.66 5 2.32 5 3 C5.66 3.33 6.32 3.66 7 4 C6 5 6 5 3.4375 5.0625 C2.2309375 5.0315625 2.2309375 5.0315625 1 5 C0.67 3.35 0.34 1.7 0 0 Z " fill="#88AE9F" transform="translate(114,176)"/>
<path d="M0 0 C3.63 0 7.26 0 11 0 C10.67 0.66 10.34 1.32 10 2 C7.67843403 2.40729228 5.3431213 2.74438677 3 3 C3 2.34 3 1.68 3 1 C1.68 1.33 0.36 1.66 -1 2 C-0.67 1.34 -0.34 0.68 0 0 Z " fill="#4B9878" transform="translate(105,114)"/>
<path d="M0 0 C1.32 0.33 2.64 0.66 4 1 C4.33 2.98 4.66 4.96 5 7 C2.5 5.75 2.5 5.75 0 4 C0 2.68 0 1.36 0 0 Z " fill="#99B8AA" transform="translate(181,106)"/>
<path d="M0 0 C2.3129482 2.3129482 2.49580975 3.47904875 3.125 6.625 C3.29257813 7.44226563 3.46015625 8.25953125 3.6328125 9.1015625 C3.81457031 10.04128906 3.81457031 10.04128906 4 11 C3.34 10.67 2.68 10.34 2 10 C2 9.34 2 8.68 2 8 C1.01 8 0.02 8 -1 8 C-0.67 5.36 -0.34 2.72 0 0 Z " fill="#77AA96" transform="translate(193,134)"/>
<path d="M0 0 C0.33 0 0.66 0 1 0 C0.67 2.31 0.34 4.62 0 7 C-0.99 7.33 -1.98 7.66 -3 8 C-2.25 2.25 -2.25 2.25 0 0 Z " fill="#9BB5A9" transform="translate(80,132)"/>
<path d="M0 0 C2.31 0 4.62 0 7 0 C7.33 0.66 7.66 1.32 8 2 C6.02 2 4.04 2 2 2 C2.33 2.99 2.66 3.98 3 5 C2.01 4.67 1.02 4.34 0 4 C0 2.68 0 1.36 0 0 Z " fill="#74B199" transform="translate(63,104)"/>
<path d="M0 0 C0.66 0.33 1.32 0.66 2 1 C-0.25 3.5625 -0.25 3.5625 -3 6 C-5.3125 5.8125 -5.3125 5.8125 -7 5 C-6.67 3.68 -6.34 2.36 -6 1 C-6 1.99 -6 2.98 -6 4 C-2.81765895 2.24545615 -2.81765895 2.24545615 0 0 Z " fill="#8DAFA0" transform="translate(112,144)"/>
<path d="M0 0 C2.25 -0.3125 2.25 -0.3125 5 0 C7.3125 2.5 7.3125 2.5 9 5 C7.68 5 6.36 5 5 5 C4.67 4.34 4.34 3.68 4 3 C1.98330173 1.86649466 1.98330173 1.86649466 0 1 C0 0.67 0 0.34 0 0 Z " fill="#91B9A9" transform="translate(173,112)"/>
<path d="M0 0 C0.556875 0.226875 1.11375 0.45375 1.6875 0.6875 C-0.7875 2.1725 -0.7875 2.1725 -3.3125 3.6875 C-2.6525 4.3475 -1.9925 5.0075 -1.3125 5.6875 C-2.6325 5.6875 -3.9525 5.6875 -5.3125 5.6875 C-5.3125 5.0275 -5.3125 4.3675 -5.3125 3.6875 C-5.9725 3.3575 -6.6325 3.0275 -7.3125 2.6875 C-2.88173077 -0.38942308 -2.88173077 -0.38942308 0 0 Z " fill="#519D7F" transform="translate(115.3125,150.3125)"/>
<path d="M0 0 C1.32 0.99 2.64 1.98 4 3 C3.67 4.32 3.34 5.64 3 7 C1.35 5.35 -0.3 3.7 -2 2 C-1.34 2 -0.68 2 0 2 C0 1.34 0 0.68 0 0 Z " fill="#7AB19C" transform="translate(210,146)"/>
<path d="M0 0 C2.31 0 4.62 0 7 0 C7.33 0.99 7.66 1.98 8 3 C5.125 3.1875 5.125 3.1875 2 3 C1.34 2.01 0.68 1.02 0 0 Z " fill="#38916D" transform="translate(169,115)"/>
<path d="M0 0 C0.33 0.99 0.66 1.98 1 3 C3.01508358 3.73323796 3.01508358 3.73323796 5 4 C2.09399739 5.25664978 0.20395416 6 -3 6 C-2 4 -1 2 0 0 Z " fill="#70B097" transform="translate(206,107)"/>
<path d="M0 0 C1.98 0.495 1.98 0.495 4 1 C3.67 2.65 3.34 4.3 3 6 C1.68 6.33 0.36 6.66 -1 7 C-0.01 5.02 0.98 3.04 2 1 C1.34 0.67 0.68 0.34 0 0 Z " fill="#8FAEA0" transform="translate(160,128)"/>
<path d="M0 0 C-0.99 0.495 -0.99 0.495 -2 1 C-1.34 1.66 -0.68 2.32 0 3 C-1.65 3.33 -3.3 3.66 -5 4 C-5.33 2.68 -5.66 1.36 -6 0 C-3.50907189 -1.24546405 -2.58919267 -0.7767578 0 0 Z " fill="#83B5A1" transform="translate(166,104)"/>
<path d="M0 0 C2.64 0 5.28 0 8 0 C8.33 0.99 8.66 1.98 9 3 C2.84765625 2.4140625 2.84765625 2.4140625 1 2 C0.67 1.34 0.34 0.68 0 0 Z " fill="#A2BBAF" transform="translate(170,103)"/>
<path d="M0 0 C1.32 0 2.64 0 4 0 C4 1.32 4 2.64 4 4 C2.35 3.67 0.7 3.34 -1 3 C-0.67 2.01 -0.34 1.02 0 0 Z " fill="#9EB5AB" transform="translate(150,141)"/>
<path d="M0 0 C3.875 1.75 3.875 1.75 5 4 C4.34 4 3.68 4 3 4 C2.67 4.66 2.34 5.32 2 6 C1.34 5.34 0.68 4.68 0 4 C0 2.68 0 1.36 0 0 Z " fill="#519879" transform="translate(118,128)"/>
<path d="" fill="#FFFFFF" transform="translate(0,0)"/>
<path d="" fill="#FFFFFF" transform="translate(0,0)"/>
<path d="" fill="#FFFFFF" transform="translate(0,0)"/>
<path d="" fill="#FFFFFF" transform="translate(0,0)"/>
<path d="" fill="#FFFFFF" transform="translate(0,0)"/>
<path d="" fill="#FFFFFF" transform="translate(0,0)"/>
</svg>